<svg viewBox="2.999 2.267 256.469 65.447" width="256.469pt" height="65.447pt" xmlns="http://www.w3.org/2000/svg" xmlns:xlink="http://www.w3.org/1999/xlink" xmlns:h5="http://www.w3.org/1999/xhtml"><path fill="#1c1c1e" fill-rule="nonzero" d="M 0 0v 69.982299213h 425.196850394v -69.982299213Z "/><g transform="translate(5.669291339 5.669291339)"><g><g><g><path fill="#e9e6e1" fill-rule="nonzero" transform="translate(0 -0.276377953)" d="M 0 0v 0.552755906h 250.592780605v -0.552755906Z "/><path fill="#e9e6e1" fill-rule="nonzero" transform="translate(0 7.093700787)" d="M 0 0v 0.552755906h 2.726929134v -0.552755906Z "/><path fill="#e9e6e1" fill-rule="nonzero" transform="translate(10.495708661 7.093700787)" d="M 0 0v 0.552755906h 240.097071944v -0.552755906Z "/><path fill="#e9e6e1" fill-rule="nonzero" transform="translate(0 14.463779528)" d="M 0 0v 0.552755906h 2.726929134v -0.552755906Z "/><path fill="#e9e6e1" fill-rule="nonzero" transform="translate(12.073792651 14.463779528)" d="M 0 0v 0.552755906h 238.518987954v -0.552755906Z "/><path fill="#e9e6e1" fill-rule="nonzero" transform="translate(0 21.833858268)" d="M 0 0v 0.552755906h 2.726929134v -0.552755906Z "/><path fill="#e9e6e1" fill-rule="nonzero" transform="translate(12.073792651 21.833858268)" d="M 0 0v 0.552755906h 14.42164042v -0.552755906Z "/><path fill="#e9e6e1" fill-rule="nonzero" transform="translate(32.93688189 21.833858268)" d="M 0 0v 0.552755906h 11.063330142v -0.552755906Z "/><path fill="#e9e6e1" fill-rule="nonzero" transform="translate(50.441660851 21.833858268)" d="M 0 0v 0.552755906h 11.063330142v -0.552755906Z "/><path fill="#e9e6e1" fill-rule="nonzero" transform="translate(67.946439812 21.833858268)" d="M 0 0v 0.552755906h 11.063330142v -0.552755906Z "/><path fill="#e9e6e1" fill-rule="nonzero" transform="translate(85.451218773 21.833858268)" d="M 0 0v 0.552755906h 11.063330142v -0.552755906Z "/><path fill="#e9e6e1" fill-rule="nonzero" transform="translate(102.955997734 21.833858268)" d="M 0 0v 0.552755906h 11.063330142v -0.552755906Z "/><path fill="#e9e6e1" fill-rule="nonzero" transform="translate(120.460776696 21.833858268)" d="M 0 0v 0.552755906h 130.132003909v -0.552755906Z "/><path fill="#e9e6e1" fill-rule="nonzero" transform="translate(0 29.203937008)" d="M 0 0v 0.552755906h 2.726929134v -0.552755906Z "/><path fill="#e9e6e1" fill-rule="nonzero" transform="translate(12.063129921 29.203937008)" d="M 0 0v 0.552755906h 14.43230315v -0.552755906Z "/><path fill="#e9e6e1" fill-rule="nonzero" transform="translate(32.93688189 29.203937008)" d="M 0 0v 0.552755906h 11.063330142v -0.552755906Z "/><path fill="#e9e6e1" fill-rule="nonzero" transform="translate(50.441660851 29.203937008)" d="M 0 0v 0.552755906h 11.063330142v -0.552755906Z "/><path fill="#e9e6e1" fill-rule="nonzero" transform="translate(67.946439812 29.203937008)" d="M 0 0v 0.552755906h 11.063330142v -0.552755906Z "/><path fill="#e9e6e1" fill-rule="nonzero" transform="translate(85.451218773 29.203937008)" d="M 0 0v 0.552755906h 11.063330142v -0.552755906Z "/><path fill="#e9e6e1" fill-rule="nonzero" transform="translate(102.955997734 29.203937008)" d="M 0 0v 0.552755906h 11.063330142v -0.552755906Z "/><path fill="#e9e6e1" fill-rule="nonzero" transform="translate(120.460776696 29.203937008)" d="M 0 0v 0.552755906h 21.381440379v -0.552755906Z "/><path fill="#e9e6e1" fill-rule="nonzero" transform="translate(148.283665893 29.203937008)" d="M 0 0v 0.552755906h 11.063330142v -0.552755906Z "/><path fill="#e9e6e1" fill-rule="nonzero" transform="translate(165.788444854 29.203937008)" d="M 0 0v 0.552755906h 11.063330142v -0.552755906Z "/><path fill="#e9e6e1" fill-rule="nonzero" transform="translate(183.293223815 29.203937008)" d="M 0 0v 0.552755906h 11.063330142v -0.552755906Z "/><path fill="#e9e6e1" fill-rule="nonzero" transform="translate(200.798002777 29.203937008)" d="M 0 0v 0.552755906h 11.063330142v -0.552755906Z "/><path fill="#e9e6e1" fill-rule="nonzero" transform="translate(218.302781738 29.203937008)" d="M 0 0v 0.552755906h 11.063330142v -0.552755906Z "/><path fill="#e9e6e1" fill-rule="nonzero" transform="translate(235.807560699 29.203937008)" d="M 0 0v 0.552755906h 14.785219906v -0.552755906Z "/><path fill="#e9e6e1" fill-rule="nonzero" transform="translate(0 36.574015748)" d="M 0 0v 0.552755906h 141.842217074v -0.552755906Z "/><path fill="#e9e6e1" fill-rule="nonzero" transform="translate(148.283665893 36.574015748)" d="M 0 0v 0.552755906h 11.063330142v -0.552755906Z "/><path fill="#e9e6e1" fill-rule="nonzero" transform="translate(165.788444854 36.574015748)" d="M 0 0v 0.552755906h 11.063330142v -0.552755906Z "/><path fill="#e9e6e1" fill-rule="nonzero" transform="translate(183.293223815 36.574015748)" d="M 0 0v 0.552755906h 11.063330142v -0.552755906Z "/><path fill="#e9e6e1" fill-rule="nonzero" transform="translate(200.798002777 36.574015748)" d="M 0 0v 0.552755906h 11.063330142v -0.552755906Z "/><path fill="#e9e6e1" fill-rule="nonzero" transform="translate(218.302781738 36.574015748)" d="M 0 0v 0.552755906h 11.063330142v -0.552755906Z "/><path fill="#e9e6e1" fill-rule="nonzero" transform="translate(235.807560699 36.574015748)" d="M 0 0v 0.552755906h 14.785219906v -0.552755906Z "/><path fill="#e9e6e1" fill-rule="nonzero" d="M 0 0v 36.850393701h 0.884409449v -36.850393701Z "/><path fill="#e9e6e1" fill-rule="nonzero" transform="translate(134.361587153)" d="M 0 0v 36.850393701h 0.884409449v -36.850393701Z "/><path fill="#e9e6e1" fill-rule="nonzero" transform="translate(249.708371156)" d="M 0 0v 36.850393701h 0.884409449v -36.850393701Z "/><g><g transform="matrix(1 0 0 -1 3.316535433 12.070209974)"><use xlink:href="#gDFF2915BC75DAB562CB7354B3EF420EA" x="0" y="0" fill="#e9e6e1" fill-rule="nonzero"/></g><g transform="matrix(1 0 0 -1 3.316535433 22.050524934)"><use xlink:href="#g867DB87B4A39C9C9461D9C5F2A831980" x="0" y="0" fill="#e9e6e1" fill-rule="nonzero"/></g><g transform="matrix(1 0 0 -1 3.316535433 32.030839895)"><use xlink:href="#gE243FAC802DC0C9EC2EFB86C771C15D9" x="0" y="0" fill="#e9e6e1" fill-rule="nonzero"/></g></g><g transform="matrix(1 0 0 -1 27.08503937 24.741354331)"><use xlink:href="#g90B03E6AF6741CB2DB8D03AE0A311377" x="0" y="0" fill="#e9e6e1" fill-rule="nonzero"/></g><g transform="matrix(1 0 0 -1 27.08503937 32.111433071)"><use xlink:href="#g3BD0B13744C646C337EF666B2891D2DE" x="0" y="0" fill="#e9e6e1" fill-rule="nonzero"/></g><g transform="matrix(1 0 0 -1 44.589818331 24.741354331)"><use xlink:href="#g90B03E6AF6741CB2DB8D03AE0A311377" x="0" y="0" fill="#e9e6e1" fill-rule="nonzero"/></g><g transform="matrix(1 0 0 -1 44.589818331 32.111433071)"><use xlink:href="#g3BD0B13744C646C337EF666B2891D2DE" x="0" y="0" fill="#e9e6e1" fill-rule="nonzero"/></g><g transform="matrix(1 0 0 -1 62.094597292 24.741354331)"><use xlink:href="#g90B03E6AF6741CB2DB8D03AE0A311377" x="0" y="0" fill="#e9e6e1" fill-rule="nonzero"/></g><g transform="matrix(1 0 0 -1 62.094597292 32.111433071)"><use xlink:href="#g3BD0B13744C646C337EF666B2891D2DE" x="0" y="0" fill="#e9e6e1" fill-rule="nonzero"/></g><g transform="matrix(1 0 0 -1 79.599376254 24.741354331)"><use xlink:href="#g90B03E6AF6741CB2DB8D03AE0A311377" x="0" y="0" fill="#e9e6e1" fill-rule="nonzero"/></g><g transform="matrix(1 0 0 -1 79.599376254 32.111433071)"><use xlink:href="#g3BD0B13744C646C337EF666B2891D2DE" x="0" y="0" fill="#e9e6e1" fill-rule="nonzero"/></g><g transform="matrix(1 0 0 -1 97.104155215 24.741354331)"><use xlink:href="#g90B03E6AF6741CB2DB8D03AE0A311377" x="0" y="0" fill="#e9e6e1" fill-rule="nonzero"/></g><g transform="matrix(1 0 0 -1 97.104155215 32.111433071)"><use xlink:href="#g3BD0B13744C646C337EF666B2891D2DE" x="0" y="0" fill="#e9e6e1" fill-rule="nonzero"/></g><g transform="matrix(1 0 0 -1 114.608934176 24.741354331)"><use xlink:href="#g90B03E6AF6741CB2DB8D03AE0A311377" x="0" y="0" fill="#e9e6e1" fill-rule="nonzero"/></g><g transform="matrix(1 0 0 -1 114.608934176 32.111433071)"><use xlink:href="#g3BD0B13744C646C337EF666B2891D2DE" x="0" y="0" fill="#e9e6e1" fill-rule="nonzero"/></g><g transform="matrix(1 0 0 -1 142.431823373 32.111433071)"><use xlink:href="#g90B03E6AF6741CB2DB8D03AE0A311377" x="0" y="0" fill="#e9e6e1" fill-rule="nonzero"/></g><g transform="matrix(1 0 0 -1 142.431823373 39.481511811)"><use xlink:href="#g3BD0B13744C646C337EF666B2891D2DE" x="0" y="0" fill="#e9e6e1" fill-rule="nonzero"/></g><g transform="matrix(1 0 0 -1 159.936602335 32.111433071)"><use xlink:href="#g90B03E6AF6741CB2DB8D03AE0A311377" x="0" y="0" fill="#e9e6e1" fill-rule="nonzero"/></g><g transform="matrix(1 0 0 -1 159.936602335 39.481511811)"><use xlink:href="#g3BD0B13744C646C337EF666B2891D2DE" x="0" y="0" fill="#e9e6e1" fill-rule="nonzero"/></g><g transform="matrix(1 0 0 -1 177.441381296 32.111433071)"><use xlink:href="#g90B03E6AF6741CB2DB8D03AE0A311377" x="0" y="0" fill="#e9e6e1" fill-rule="nonzero"/></g><g transform="matrix(1 0 0 -1 177.441381296 39.481511811)"><use xlink:href="#g3BD0B13744C646C337EF666B2891D2DE" x="0" y="0" fill="#e9e6e1" fill-rule="nonzero"/></g><g transform="matrix(1 0 0 -1 194.946160257 32.111433071)"><use xlink:href="#g90B03E6AF6741CB2DB8D03AE0A311377" x="0" y="0" fill="#e9e6e1" fill-rule="nonzero"/></g><g transform="matrix(1 0 0 -1 194.946160257 39.481511811)"><use xlink:href="#g3BD0B13744C646C337EF666B2891D2DE" x="0" y="0" fill="#e9e6e1" fill-rule="nonzero"/></g><g transform="matrix(1 0 0 -1 212.450939218 32.111433071)"><use xlink:href="#g90B03E6AF6741CB2DB8D03AE0A311377" x="0" y="0" fill="#e9e6e1" fill-rule="nonzero"/></g><g transform="matrix(1 0 0 -1 212.450939218 39.481511811)"><use xlink:href="#g3BD0B13744C646C337EF666B2891D2DE" x="0" y="0" fill="#e9e6e1" fill-rule="nonzero"/></g><g transform="matrix(1 0 0 -1 229.955718179 32.111433071)"><use xlink:href="#g90B03E6AF6741CB2DB8D03AE0A311377" x="0" y="0" fill="#e9e6e1" fill-rule="nonzero"/></g><g transform="matrix(1 0 0 -1 229.955718179 39.481511811)"><use xlink:href="#g3BD0B13744C646C337EF666B2891D2DE" x="0" y="0" fill="#e9e6e1" fill-rule="nonzero"/></g></g></g><g transform="translate(0 42.798047244)"><path fill="#e9e6e1" fill-rule="nonzero" transform="translate(29.384503937 1.105511811)" d="M 0 0v 14.74015748h 0.663307087v -14.74015748Z "/><path fill="#e9e6e1" fill-rule="nonzero" transform="translate(46.889282898 1.105511811)" d="M 0 0v 14.74015748h 0.663307087v -14.74015748Z "/><path fill="#e9e6e1" fill-rule="nonzero" transform="translate(64.394061859 1.105511811)" d="M 0 0v 14.74015748h 0.663307087v -14.74015748Z "/><path fill="#e9e6e1" fill-rule="nonzero" transform="translate(81.898840821 1.105511811)" d="M 0 0v 14.74015748h 0.663307087v -14.74015748Z "/><path fill="#e9e6e1" fill-rule="nonzero" transform="translate(99.403619782 1.105511811)" d="M 0 0v 14.74015748h 0.663307087v -14.74015748Z "/><path fill="#e9e6e1" fill-rule="nonzero" transform="translate(116.908398743 1.105511811)" d="M 0 0v 14.74015748h 0.663307087v -14.74015748Z "/><path fill="#e9e6e1" fill-rule="nonzero" transform="translate(29.384503937 13.737826772)" d="M 0 0v 2.10784252h 88.187201893v -2.10784252Z "/><path fill="#e9e6e1" fill-rule="nonzero" transform="translate(144.73128794 1.105511811)" d="M 0 0v 14.74015748h 0.663307087v -14.74015748Z "/><path fill="#e9e6e1" fill-rule="nonzero" transform="translate(162.236066902 1.105511811)" d="M 0 0v 14.74015748h 0.663307087v -14.74015748Z "/><path fill="#e9e6e1" fill-rule="nonzero" transform="translate(179.740845863 1.105511811)" d="M 0 0v 14.74015748h 0.663307087v -14.74015748Z "/><path fill="#e9e6e1" fill-rule="nonzero" transform="translate(197.245624824 1.105511811)" d="M 0 0v 14.74015748h 0.663307087v -14.74015748Z "/><path fill="#e9e6e1" fill-rule="nonzero" transform="translate(214.750403785 1.105511811)" d="M 0 0v 14.74015748h 0.663307087v -14.74015748Z "/><path fill="#e9e6e1" fill-rule="nonzero" transform="translate(232.255182746 1.105511811)" d="M 0 0v 14.74015748h 0.663307087v -14.74015748Z "/><path fill="#e9e6e1" fill-rule="nonzero" transform="translate(144.73128794 13.737826772)" d="M 0 0v 2.10784252h 88.187201893v -2.10784252Z "/></g></g></g><defs><symbol id="gDFF2915BC75DAB562CB7354B3EF420EA" overflow="visible"><path d="M 0 0m 2.427962246 0v 6.053081422h -2.385311327v 1.410829339h 6.50208751v -1.410829339h -2.385311002v -6.053081422h -1.731465182Z "/></symbol><symbol id="g867DB87B4A39C9C9461D9C5F2A831980" overflow="visible"><path d="M 0 0m -0.099649018 0l 3.327134414 7.463910761h 1.708116056l 3.333567972 -7.463910761h -1.803898398l -2.737907375 6.584947541h 0.685010419l -2.737907049 -6.584947541h -1.77411604Z m 1.670391968 1.596813728l 0.453179677 1.310817764h 3.845170739l 0.459612849 -1.310817764h -4.757963266Z "/></symbol><symbol id="gE243FAC802DC0C9EC2EFB86C771C15D9" overflow="visible"><path d="M 0 0m 0.884434426 0v 7.463910761h 3.646862857q 1.404549431 0 2.117759399 -0.533045371q 0.713209317 -0.533046022 0.713209317 -1.411800334q 0 -0.584426464 -0.288815236 -1.014061775q -0.288814585 -0.429635636 -0.79263572 -0.666239355q -0.503821135 -0.236603719 -1.152976955 -0.236603719l 0.200386623 0.44067518q 0.707061197 0 1.248201886 -0.232375137q 0.541140689 -0.232374812 0.849076469 -0.680118671q 0.307935129 -0.447744022 0.307935129 -1.091736383q 0 -0.963874658 -0.756781771 -1.501239926q -0.756781771 -0.537365268 -2.232104549 -0.537365268h -3.86011745Z m 1.714549959 1.296107619h 2.022387712q 0.666770084 0 1.016239682 0.223268393q 0.349469272 0.223268311 0.349469272 0.697745951q 0 0.47447764 -0.349469272 0.700963025q -0.349469598 0.226485385 -1.016239682 0.226485385h -2.14795398v 1.258048511h 1.845350215q 0.632394756 0 0.964767801 0.221153695q 0.33237272 0.22115402 0.33237272 0.661438394q 0 0.444513281 -0.33237272 0.663552847q -0.332373046 0.219039567 -0.964767801 0.219039567h -1.719783948v -4.871695768Z "/></symbol><symbol id="g90B03E6AF6741CB2DB8D03AE0A311377" overflow="visible"><path d="M 0 0m 0.659361174 0v 0.512723048l 2.221988914 2.06662016q 0.28983571 0.269621241 0.437091192 0.478185436q 0.147255712 0.208564425 0.200210497 0.385305737q 0.052954785 0.176741083 0.052954785 0.339948499q 0 0.267283499 -0.135394941 0.461144927q -0.135394941 0.193861887 -0.397830895 0.301525108q -0.262436183 0.107662762 -0.661184051 0.107662762q -0.442523058 0 -0.80143709 -0.137068296q -0.358913917 -0.137067837 -0.616341964 -0.429745315l -0.510385249 0.442888517q 0.323251654 0.382726651 0.841212654 0.588208422q 0.517961001 0.205481313 1.144088903 0.205481313q 0.592208049 0 1.015444393 -0.181004078q 0.423236344 -0.181004078 0.64926455 -0.510271918q 0.226028664 -0.32926784 0.226028664 -0.771469488q 0 -0.255594331 -0.073169255 -0.50250231q -0.073169255 -0.246907979 -0.269208293 -0.5270603q -0.196039038 -0.280152091 -0.570744183 -0.628293927l -1.969053564 -1.839079391l -0.097727244 0.287520021h 3.199743414v -0.650718928h -3.885551239Z "/></symbol><symbol id="g3BD0B13744C646C337EF666B2891D2DE" overflow="visible"><path d="M 0 0m 2.63111811 -0.060643954q -0.641627085 0 -1.130867815 0.327010394q -0.489240615 0.327010422 -0.767054964 0.930998774q -0.277814349 0.60398818 -0.277814349 1.436927086q 0 0.832939021 0.277814349 1.433752896q 0.277814349 0.600814334 0.767054964 0.927824728q 0.48924073 0.327010394 1.130867815 0.327010394q 0.641627085 0 1.130867815 -0.327010394q 0.4892405 -0.327010394 0.76705462 -0.927824728q 0.277814578 -0.600813875 0.277814578 -1.433752896q 0 -0.832938907 -0.277814578 -1.436927201q -0.277814119 -0.603988237 -0.76705462 -0.930998631q -0.48924073 -0.327010422 -1.130867815 -0.327010422Z m -0.001070222 0.66976467q 0.417694818 0 0.737680974 0.232033667q 0.319985927 0.23203361 0.502823721 0.681570123q 0.182837565 0.449536513 0.182837565 1.105761293q 0 0.662658273 -0.182837565 1.111610236q -0.182837794 0.448951963 -0.501753499 0.680985802q -0.318915705 0.232033839 -0.736610752 0.232033839q -0.417694818 0 -0.737680859 -0.232033839q -0.319986042 -0.232033839 -0.502823721 -0.680985802q -0.182837679 -0.448951963 -0.182837679 -1.111610236q 0 -0.65622478 0.182837679 -1.105761293q 0.182837679 -0.449536513 0.501753384 -0.681570123q 0.318915705 -0.232033667 0.736610752 -0.232033667Z "/></symbol></defs></svg>